<svg xmlns="http://www.w3.org/2000/svg" width="620" height="620" style="background:#faf6ef"><text x="310" y="40" text-anchor="middle" font-size="24" font-family="KaiTi, STKaiti, SimSun, serif" fill="#8b0000">紫微斗数十二宫位</text><polygon points="310,80 435,113.49364905389035 310,330" fill="#f5e9d0" stroke="#d4b878" stroke-width="1.2"/><text x="350.1169519908907" y="185.2814969251944" text-anchor="middle" font-size="16" font-family="KaiTi, STKaiti, SimSun, serif" fill="#2d2d2d">命宫</text><polygon points="435,113.49364905389035 526.5063509461097,205 310,330" fill="#fdf6e3" stroke="#d4b878" stroke-width="1.2"/><text x="419.60155108391484" y="225.39844891608516" text-anchor="middle" font-size="16" font-family="KaiTi, STKaiti, SimSun, serif" fill="#2d2d2d">兄弟</text><polygon points="526.5063509461097,205 560,330 310,330" fill="#f5e9d0" stroke="#d4b878" stroke-width="1.2"/><text x="459.7185030748056" y="294.8830480091093" text-anchor="middle" font-size="16" font-family="KaiTi, STKaiti, SimSun, serif" fill="#2d2d2d">夫妻</text><polygon points="560,330 526.5063509461097,455 310,330" fill="#fdf6e3" stroke="#d4b878" stroke-width="1.2"/><text x="459.7185030748056" y="375.1169519908907" text-anchor="middle" font-size="16" font-family="KaiTi, STKaiti, SimSun, serif" fill="#2d2d2d">子女</text><polygon points="526.5063509461097,455 435,546.5063509461097 310,330" fill="#f5e9d0" stroke="#d4b878" stroke-width="1.2"/><text x="419.60155108391484" y="444.60155108391484" text-anchor="middle" font-size="16" font-family="KaiTi, STKaiti, SimSun, serif" fill="#2d2d2d">财帛</text><polygon points="435,546.5063509461097 310,580 310,330" fill="#fdf6e3" stroke="#d4b878" stroke-width="1.2"/><text x="350.1169519908907" y="484.7185030748056" text-anchor="middle" font-size="16" font-family="KaiTi, STKaiti, SimSun, serif" fill="#2d2d2d">疾厄</text><polygon points="310,580 185.00000000000006,546.5063509461097 310,330" fill="#f5e9d0" stroke="#d4b878" stroke-width="1.2"/><text x="269.88304800910925" y="484.7185030748056" text-anchor="middle" font-size="16" font-family="KaiTi, STKaiti, SimSun, serif" fill="#2d2d2d">迁移</text><polygon points="185.00000000000006,546.5063509461097 93.49364905389032,455 310,330" fill="#fdf6e3" stroke="#d4b878" stroke-width="1.2"/><text x="200.39844891608516" y="444.60155108391484" text-anchor="middle" font-size="16" font-family="KaiTi, STKaiti, SimSun, serif" fill="#2d2d2d">仆役</text><polygon points="93.49364905389032,455 60,330.00000000000006 310,330" fill="#f5e9d0" stroke="#d4b878" stroke-width="1.2"/><text x="160.28149692519443" y="375.11695199089075" text-anchor="middle" font-size="16" font-family="KaiTi, STKaiti, SimSun, serif" fill="#2d2d2d">官禄</text><polygon points="60,330.00000000000006 93.49364905389035,204.99999999999997 310,330" fill="#fdf6e3" stroke="#d4b878" stroke-width="1.2"/><text x="160.2814969251944" y="294.88304800910936" text-anchor="middle" font-size="16" font-family="KaiTi, STKaiti, SimSun, serif" fill="#2d2d2d">田宅</text><polygon points="93.49364905389035,204.99999999999997 184.9999999999999,113.49364905389038 310,330" fill="#f5e9d0" stroke="#d4b878" stroke-width="1.2"/><text x="200.3984489160851" y="225.39844891608516" text-anchor="middle" font-size="16" font-family="KaiTi, STKaiti, SimSun, serif" fill="#2d2d2d">福德</text><polygon points="184.9999999999999,113.49364905389038 309.99999999999994,80 310,330" fill="#fdf6e3" stroke="#d4b878" stroke-width="1.2"/><text x="269.8830480091093" y="185.2814969251944" text-anchor="middle" font-size="16" font-family="KaiTi, STKaiti, SimSun, serif" fill="#2d2d2d">父母</text><circle cx="310" cy="330" r="62" fill="#f0dcc0" stroke="#b8860b" stroke-width="2"/><text x="310" y="325" text-anchor="middle" font-size="15" font-family="KaiTi, STKaiti, SimSun, serif" fill="#8b0000">中宫</text><text x="310" y="350" text-anchor="middle" font-size="12" font-family="KaiTi, STKaiti, SimSun, serif" fill="#888">（命盘）</text><text x="310" y="600" text-anchor="middle" font-size="12" font-family="KaiTi, STKaiti, SimSun, serif" fill="#999">十二宫各主不同人生领域：命宫论先天格局，财帛宫论财，官禄宫论事业</text></svg>