<svg xmlns="http://www.w3.org/2000/svg" width="800" height="620" style="background:#faf6ef"><text x="400" y="36" text-anchor="middle" font-size="24" font-family="KaiTi, STKaiti, SimSun, serif" fill="#8b0000">天干地支对照表</text><text x="30" y="76" font-size="16" font-family="KaiTi, STKaiti, SimSun, serif" fill="#2d2d2d" font-weight="bold">十天干</text><rect x="30" y="90" width="68" height="64" rx="8" fill="#f5e9d0" stroke="#d4b878"/><text x="64" y="118" text-anchor="middle" font-size="24" font-family="KaiTi, STKaiti, SimSun, serif" fill="#2d2d2d">甲</text><text x="64" y="140" text-anchor="middle" font-size="11" font-family="KaiTi, STKaiti, SimSun, serif" fill="#888">木·阳</text><rect x="104" y="90" width="68" height="64" rx="8" fill="#fdf6e3" stroke="#d4b878"/><text x="138" y="118" text-anchor="middle" font-size="24" font-family="KaiTi, STKaiti, SimSun, serif" fill="#2d2d2d">乙</text><text x="138" y="140" text-anchor="middle" font-size="11" font-family="KaiTi, STKaiti, SimSun, serif" fill="#888">木·阴</text><rect x="178" y="90" width="68" height="64" rx="8" fill="#f5e9d0" stroke="#d4b878"/><text x="212" y="118" text-anchor="middle" font-size="24" font-family="KaiTi, STKaiti, SimSun, serif" fill="#2d2d2d">丙</text><text x="212" y="140" text-anchor="middle" font-size="11" font-family="KaiTi, STKaiti, SimSun, serif" fill="#888">火·阳</text><rect x="252" y="90" width="68" height="64" rx="8" fill="#fdf6e3" stroke="#d4b878"/><text x="286" y="118" text-anchor="middle" font-size="24" font-family="KaiTi, STKaiti, SimSun, serif" fill="#2d2d2d">丁</text><text x="286" y="140" text-anchor="middle" font-size="11" font-family="KaiTi, STKaiti, SimSun, serif" fill="#888">火·阴</text><rect x="326" y="90" width="68" height="64" rx="8" fill="#f5e9d0" stroke="#d4b878"/><text x="360" y="118" text-anchor="middle" font-size="24" font-family="KaiTi, STKaiti, SimSun, serif" fill="#2d2d2d">戊</text><text x="360" y="140" text-anchor="middle" font-size="11" font-family="KaiTi, STKaiti, SimSun, serif" fill="#888">土·阳</text><rect x="400" y="90" width="68" height="64" rx="8" fill="#fdf6e3" stroke="#d4b878"/><text x="434" y="118" text-anchor="middle" font-size="24" font-family="KaiTi, STKaiti, SimSun, serif" fill="#2d2d2d">己</text><text x="434" y="140" text-anchor="middle" font-size="11" font-family="KaiTi, STKaiti, SimSun, serif" fill="#888">土·阴</text><rect x="474" y="90" width="68" height="64" rx="8" fill="#f5e9d0" stroke="#d4b878"/><text x="508" y="118" text-anchor="middle" font-size="24" font-family="KaiTi, STKaiti, SimSun, serif" fill="#2d2d2d">庚</text><text x="508" y="140" text-anchor="middle" font-size="11" font-family="KaiTi, STKaiti, SimSun, serif" fill="#888">金·阳</text><rect x="548" y="90" width="68" height="64" rx="8" fill="#fdf6e3" stroke="#d4b878"/><text x="582" y="118" text-anchor="middle" font-size="24" font-family="KaiTi, STKaiti, SimSun, serif" fill="#2d2d2d">辛</text><text x="582" y="140" text-anchor="middle" font-size="11" font-family="KaiTi, STKaiti, SimSun, serif" fill="#888">金·阴</text><rect x="622" y="90" width="68" height="64" rx="8" fill="#f5e9d0" stroke="#d4b878"/><text x="656" y="118" text-anchor="middle" font-size="24" font-family="KaiTi, STKaiti, SimSun, serif" fill="#2d2d2d">壬</text><text x="656" y="140" text-anchor="middle" font-size="11" font-family="KaiTi, STKaiti, SimSun, serif" fill="#888">水·阳</text><rect x="696" y="90" width="68" height="64" rx="8" fill="#fdf6e3" stroke="#d4b878"/><text x="730" y="118" text-anchor="middle" font-size="24" font-family="KaiTi, STKaiti, SimSun, serif" fill="#2d2d2d">癸</text><text x="730" y="140" text-anchor="middle" font-size="11" font-family="KaiTi, STKaiti, SimSun, serif" fill="#888">水·阴</text><text x="30" y="190" font-size="16" font-family="KaiTi, STKaiti, SimSun, serif" fill="#2d2d2d" font-weight="bold">十二地支 · 生肖 · 时辰</text><rect x="30" y="204" width="118" height="84" rx="8" fill="#f5e9d0" stroke="#d4b878"/><text x="50" y="238" font-size="26" font-family="KaiTi, STKaiti, SimSun, serif" fill="#2d2d2d">子</text><text x="100" y="234" font-size="20" font-family="KaiTi, STKaiti, SimSun, serif" fill="#8b0000">鼠</text><text x="100" y="258" font-size="12" font-family="KaiTi, STKaiti, SimSun, serif" fill="#888">23-1时</text><text x="50" y="266" font-size="11" font-family="KaiTi, STKaiti, SimSun, serif" fill="#999">子月</text><rect x="154" y="204" width="118" height="84" rx="8" fill="#fdf6e3" stroke="#d4b878"/><text x="174" y="238" font-size="26" font-family="KaiTi, STKaiti, SimSun, serif" fill="#2d2d2d">丑</text><text x="224" y="234" font-size="20" font-family="KaiTi, STKaiti, SimSun, serif" fill="#8b0000">牛</text><text x="224" y="258" font-size="12" font-family="KaiTi, STKaiti, SimSun, serif" fill="#888">1-3时</text><text x="174" y="266" font-size="11" font-family="KaiTi, STKaiti, SimSun, serif" fill="#999">丑月</text><rect x="278" y="204" width="118" height="84" rx="8" fill="#f5e9d0" stroke="#d4b878"/><text x="298" y="238" font-size="26" font-family="KaiTi, STKaiti, SimSun, serif" fill="#2d2d2d">寅</text><text x="348" y="234" font-size="20" font-family="KaiTi, STKaiti, SimSun, serif" fill="#8b0000">虎</text><text x="348" y="258" font-size="12" font-family="KaiTi, STKaiti, SimSun, serif" fill="#888">3-5时</text><text x="298" y="266" font-size="11" font-family="KaiTi, STKaiti, SimSun, serif" fill="#999">寅月</text><rect x="402" y="204" width="118" height="84" rx="8" fill="#fdf6e3" stroke="#d4b878"/><text x="422" y="238" font-size="26" font-family="KaiTi, STKaiti, SimSun, serif" fill="#2d2d2d">卯</text><text x="472" y="234" font-size="20" font-family="KaiTi, STKaiti, SimSun, serif" fill="#8b0000">兔</text><text x="472" y="258" font-size="12" font-family="KaiTi, STKaiti, SimSun, serif" fill="#888">5-7时</text><text x="422" y="266" font-size="11" font-family="KaiTi, STKaiti, SimSun, serif" fill="#999">卯月</text><rect x="526" y="204" width="118" height="84" rx="8" fill="#f5e9d0" stroke="#d4b878"/><text x="546" y="238" font-size="26" font-family="KaiTi, STKaiti, SimSun, serif" fill="#2d2d2d">辰</text><text x="596" y="234" font-size="20" font-family="KaiTi, STKaiti, SimSun, serif" fill="#8b0000">龙</text><text x="596" y="258" font-size="12" font-family="KaiTi, STKaiti, SimSun, serif" fill="#888">7-9时</text><text x="546" y="266" font-size="11" font-family="KaiTi, STKaiti, SimSun, serif" fill="#999">辰月</text><rect x="650" y="204" width="118" height="84" rx="8" fill="#fdf6e3" stroke="#d4b878"/><text x="670" y="238" font-size="26" font-family="KaiTi, STKaiti, SimSun, serif" fill="#2d2d2d">巳</text><text x="720" y="234" font-size="20" font-family="KaiTi, STKaiti, SimSun, serif" fill="#8b0000">蛇</text><text x="720" y="258" font-size="12" font-family="KaiTi, STKaiti, SimSun, serif" fill="#888">9-11时</text><text x="670" y="266" font-size="11" font-family="KaiTi, STKaiti, SimSun, serif" fill="#999">巳月</text><rect x="30" y="300" width="118" height="84" rx="8" fill="#f5e9d0" stroke="#d4b878"/><text x="50" y="334" font-size="26" font-family="KaiTi, STKaiti, SimSun, serif" fill="#2d2d2d">午</text><text x="100" y="330" font-size="20" font-family="KaiTi, STKaiti, SimSun, serif" fill="#8b0000">马</text><text x="100" y="354" font-size="12" font-family="KaiTi, STKaiti, SimSun, serif" fill="#888">11-13时</text><text x="50" y="362" font-size="11" font-family="KaiTi, STKaiti, SimSun, serif" fill="#999">午月</text><rect x="154" y="300" width="118" height="84" rx="8" fill="#fdf6e3" stroke="#d4b878"/><text x="174" y="334" font-size="26" font-family="KaiTi, STKaiti, SimSun, serif" fill="#2d2d2d">未</text><text x="224" y="330" font-size="20" font-family="KaiTi, STKaiti, SimSun, serif" fill="#8b0000">羊</text><text x="224" y="354" font-size="12" font-family="KaiTi, STKaiti, SimSun, serif" fill="#888">13-15时</text><text x="174" y="362" font-size="11" font-family="KaiTi, STKaiti, SimSun, serif" fill="#999">未月</text><rect x="278" y="300" width="118" height="84" rx="8" fill="#f5e9d0" stroke="#d4b878"/><text x="298" y="334" font-size="26" font-family="KaiTi, STKaiti, SimSun, serif" fill="#2d2d2d">申</text><text x="348" y="330" font-size="20" font-family="KaiTi, STKaiti, SimSun, serif" fill="#8b0000">猴</text><text x="348" y="354" font-size="12" font-family="KaiTi, STKaiti, SimSun, serif" fill="#888">15-17时</text><text x="298" y="362" font-size="11" font-family="KaiTi, STKaiti, SimSun, serif" fill="#999">申月</text><rect x="402" y="300" width="118" height="84" rx="8" fill="#fdf6e3" stroke="#d4b878"/><text x="422" y="334" font-size="26" font-family="KaiTi, STKaiti, SimSun, serif" fill="#2d2d2d">酉</text><text x="472" y="330" font-size="20" font-family="KaiTi, STKaiti, SimSun, serif" fill="#8b0000">鸡</text><text x="472" y="354" font-size="12" font-family="KaiTi, STKaiti, SimSun, serif" fill="#888">17-19时</text><text x="422" y="362" font-size="11" font-family="KaiTi, STKaiti, SimSun, serif" fill="#999">酉月</text><rect x="526" y="300" width="118" height="84" rx="8" fill="#f5e9d0" stroke="#d4b878"/><text x="546" y="334" font-size="26" font-family="KaiTi, STKaiti, SimSun, serif" fill="#2d2d2d">戌</text><text x="596" y="330" font-size="20" font-family="KaiTi, STKaiti, SimSun, serif" fill="#8b0000">狗</text><text x="596" y="354" font-size="12" font-family="KaiTi, STKaiti, SimSun, serif" fill="#888">19-21时</text><text x="546" y="362" font-size="11" font-family="KaiTi, STKaiti, SimSun, serif" fill="#999">戌月</text><rect x="650" y="300" width="118" height="84" rx="8" fill="#fdf6e3" stroke="#d4b878"/><text x="670" y="334" font-size="26" font-family="KaiTi, STKaiti, SimSun, serif" fill="#2d2d2d">亥</text><text x="720" y="330" font-size="20" font-family="KaiTi, STKaiti, SimSun, serif" fill="#8b0000">猪</text><text x="720" y="354" font-size="12" font-family="KaiTi, STKaiti, SimSun, serif" fill="#888">21-23时</text><text x="670" y="362" font-size="11" font-family="KaiTi, STKaiti, SimSun, serif" fill="#999">亥月</text><text x="400" y="600" text-anchor="middle" font-size="12" font-family="KaiTi, STKaiti, SimSun, serif" fill="#999">天干地支纪年法以六十甲子循环，是传统历法的核心骨架</text></svg>